<svg width="122" height="35" viewBox="0 0 122 35" fill="none" xmlns="http://www.w3.org/2000/svg">
    <rect width="122" height="35" fill="#0165C7"/>
    <path d="M26.791 17.148V15.645H30.256V14.7H25.765V21H28.339C29.536 21 30.751 20.631 30.751 19.083C30.751 17.526 29.536 17.148 28.339 17.148H26.791ZM26.791 20.064V18.084H28.357C29.023 18.084 29.707 18.21 29.707 19.083C29.707 19.947 29.032 20.064 28.357 20.064H26.791ZM37.1849 21V14.7H36.2219L32.8289 19.308C32.8379 19.092 32.8379 18.849 32.8379 18.615V14.7H31.8119V21H32.7749L36.1679 16.392C36.1589 16.608 36.1589 16.851 36.1589 17.076V21H37.1849ZM43.1213 19.29C43.1213 18.309 42.4553 17.832 41.8433 17.688C42.4373 17.49 42.8693 17.004 42.8693 16.275C42.8693 15.132 41.8613 14.583 40.4573 14.583C39.7463 14.583 39.0893 14.7 38.4053 14.988V15.996C39.1253 15.654 39.7283 15.528 40.3763 15.537C41.2583 15.537 41.8253 15.771 41.8253 16.419C41.8253 16.986 41.3213 17.274 40.5563 17.274H39.2963V18.21H40.6463C41.3663 18.21 42.0773 18.408 42.0773 19.164C42.0773 19.965 41.2763 20.163 40.5023 20.163C39.7643 20.172 39.0533 20.073 38.2973 19.713V20.712C39.0623 21 39.7823 21.117 40.5833 21.117C41.7893 21.117 43.1213 20.676 43.1213 19.29ZM48.613 14.7V17.373H45.292V14.7H44.266V21H45.292V18.318H48.613V21H49.639V14.7H48.613ZM51.1654 14.7V21H55.5574V20.064H52.1914V18.291H55.2334V17.355H52.1914V15.636H55.5034V14.7H51.1654ZM56.2628 17.904C56.2538 20.055 57.9818 21.117 59.6108 21.117C60.2768 21.117 60.9068 20.964 61.4378 20.703V19.686C61.0238 20.001 60.4388 20.172 59.7908 20.172C58.5848 20.172 57.3068 19.452 57.3068 17.904C57.3158 16.239 58.5668 15.528 59.7728 15.528C60.3668 15.528 60.9518 15.69 61.3928 15.996V14.997C60.8528 14.727 60.2318 14.583 59.6018 14.583C57.9458 14.583 56.2628 15.663 56.2628 17.904ZM62.1462 18.354V19.218H65.4222V18.354H62.1462ZM67.748 21V18.273H69.008L70.907 21H72.068L69.818 17.769L71.906 14.7H70.745L68.99 17.328H67.748V14.7H66.722V21H67.748ZM74.0615 14.7C73.8635 17.22 73.7465 20.064 72.6395 20.1C72.4505 20.1 72.3335 20.082 72.2075 20.037V20.982C72.4325 21.054 72.6395 21.09 72.8285 21.09C74.5295 21.081 74.7815 18.435 75.0245 15.645H77.1125V21H78.1385V14.7H74.0615ZM80.0463 21L80.6043 19.641H83.7633L84.3213 21H85.4013L82.7463 14.7H81.6213L78.9573 21H80.0463ZM82.0623 16.05C82.0983 15.951 82.1343 15.852 82.1793 15.699C82.2243 15.852 82.2603 15.951 82.2963 16.05L83.4033 18.741H80.9553L82.0623 16.05ZM85.5567 17.904C85.5477 20.055 87.2757 21.117 88.9047 21.117C89.5707 21.117 90.2007 20.964 90.7317 20.703V19.686C90.3177 20.001 89.7327 20.172 89.0847 20.172C87.8787 20.172 86.6007 19.452 86.6007 17.904C86.6097 16.239 87.8607 15.528 89.0667 15.528C89.6607 15.528 90.2457 15.69 90.6867 15.996V14.997C90.1467 14.727 89.5257 14.583 88.8957 14.583C87.2397 14.583 85.5567 15.663 85.5567 17.904ZM91.3575 17.904C91.3485 20.055 93.0765 21.117 94.7055 21.117C95.3715 21.117 96.0015 20.964 96.5325 20.703V19.686C96.1185 20.001 95.5335 20.172 94.8855 20.172C93.6795 20.172 92.4015 19.452 92.4015 17.904C92.4105 16.239 93.6615 15.528 94.8675 15.528C95.4615 15.528 96.0465 15.69 96.4875 15.996V14.997C95.9475 14.727 95.3265 14.583 94.6965 14.583C93.0405 14.583 91.3575 15.663 91.3575 17.904Z" fill="white"/>
</svg>
